<svg width="47" height="47" viewBox="0 0 47 47" fill="none" xmlns="http://www.w3.org/2000/svg">
<path d="M2.40391 44.5961V44.2461V33.5055V33.3123L2.56737 33.2093C3.86535 32.3918 5.34522 31.9625 6.88477 31.9625C9.61772 31.9625 12.1561 33.3248 13.6743 35.6052L2.40391 44.5961ZM2.40391 44.5961H2.75391M2.40391 44.5961H2.75391M2.75391 44.5961H35.0667H35.5094L35.4072 44.1654C34.7475 41.3828 32.2428 39.3063 29.2603 39.3063C27.6121 39.3063 26.0497 39.9418 24.863 41.0941C24.5959 41.3534 24.2096 41.448 23.8531 41.3411L23.853 41.3411M2.75391 44.5961L23.853 41.3411M23.853 41.3411C23.4964 41.2342 23.2255 40.9428 23.145 40.5795C22.8388 39.1976 22.0626 37.9434 20.9592 37.0459C19.8247 36.1229 18.4478 35.6344 16.9824 35.6344C16.2723 35.6344 15.5623 35.7593 14.8727 36.004M23.853 41.3411L14.8727 36.004M14.8727 36.004C14.4289 36.1613 13.9353 35.997 13.6743 35.6053L14.8727 36.004ZM46.2657 37.2584L46.2657 37.2584C46.5087 37.4533 46.65 37.748 46.65 38.0594V45.623C46.65 46.1902 46.1902 46.65 45.623 46.65H1.37695C0.809808 46.65 0.35 46.1902 0.35 45.623V32.784C0.35 32.4613 0.501647 32.1574 0.759486 31.9634C2.54675 30.6184 4.6639 29.9086 6.88477 29.9086C9.97451 29.9086 12.8646 31.2978 14.7955 33.6689L14.9329 33.8376L15.1449 33.7891C15.7518 33.6503 16.3666 33.5805 16.9824 33.5805C17.7603 33.5805 18.5312 33.692 19.2732 33.9036L19.7191 34.0308V33.567V30.4766V30.1266H19.3691H14.4121C13.845 30.1266 13.3852 29.6668 13.3852 29.0996V20.8379C13.3852 20.2707 13.845 19.8109 14.4121 19.8109H19.3691H19.7191V19.4609V16.707V16.357H19.3691H8.7207C8.5443 16.357 8.37093 16.3116 8.21734 16.2252L8.21722 16.2251L0.87347 12.0942L0.873436 12.0942C0.550128 11.9124 0.35 11.5702 0.35 11.1992C0.35 10.8282 0.550128 10.486 0.873436 10.3042L0.87347 10.3042L8.21722 6.17335L8.21734 6.17328C8.37093 6.08681 8.5443 6.04141 8.7207 6.04141H19.3691H19.7191V5.69141V1.37695C19.7191 0.809808 20.1789 0.35 20.7461 0.35H26.2539C26.8211 0.35 27.2809 0.809808 27.2809 1.37695V5.69141V6.04141H27.6309H32.5879C33.155 6.04141 33.6148 6.50121 33.6148 7.06836V15.3301C33.6148 15.8972 33.155 16.357 32.5879 16.357H27.6309H27.2809V16.707V19.4609V19.8109H27.6309H38.2793C38.4557 19.8109 38.6291 19.8563 38.7827 19.9428L38.7828 19.9429L46.1265 24.0737L46.1266 24.0738C46.4499 24.2556 46.65 24.5977 46.65 24.9688C46.65 25.3398 46.4499 25.6819 46.1266 25.8637L46.1265 25.8638L38.7828 29.9946L38.7827 29.9947C38.6291 30.0812 38.4557 30.1266 38.2793 30.1266H27.6309H27.2809V30.4766V37.0558V37.4783L27.696 37.3997C28.2073 37.3029 28.7304 37.2523 29.2603 37.2523C31.0041 37.2523 32.6243 37.7884 33.9664 38.7043L34.2379 38.8895L34.4398 38.6302C36.0075 36.6174 38.4143 35.4164 41.0332 35.4164C42.9266 35.4164 44.7854 36.0706 46.2657 37.2584ZM22.123 2.40391H21.773V2.75391V5.69141V6.04141H22.123H24.877H25.227V5.69141V2.75391V2.40391H24.877H22.123ZM4.01398 10.8942L3.47167 11.1992L4.01398 11.5043L8.90978 14.2582L8.98969 14.3031H9.08137H31.2109H31.5609V13.9531V8.44531V8.09531H31.2109H9.08137H8.98969L8.90978 8.14026L4.01398 10.8942ZM22.123 16.357H21.773V16.707V19.4609V19.8109H22.123H24.877H25.227V19.4609V16.707V16.357H24.877H22.123ZM15.7891 21.8648H15.4391V22.2148V27.7227V28.0727H15.7891H37.9186H38.0103L38.0902 28.0277L42.986 25.2738L43.5283 24.9688L42.986 24.6637L38.0902 21.9098L38.0103 21.8648H37.9186H15.7891ZM25.227 30.4766V30.1266H24.877H22.123H22.123H21.773V30.4766V34.9102V35.0879L21.9165 35.1928C22.0328 35.2777 22.1459 35.3636 22.2552 35.4525C23.2015 36.2222 23.9665 37.1914 24.4983 38.2767L24.6653 38.6175L24.9915 38.4235C25.0202 38.4065 25.0104 38.4132 25.0534 38.3881L25.227 38.2867V38.0858V30.4766ZM44.2461 44.5961H44.5961V44.2461V38.762V38.5712L44.4357 38.4678C43.4203 37.8131 42.2554 37.4703 41.0332 37.4703C38.9649 37.4703 37.0689 38.465 35.893 40.1169L35.7429 40.3278L35.9006 40.5331C36.7306 41.6132 37.303 42.8999 37.5263 44.3012L37.5732 44.5961H37.8719H44.2461Z" fill="#FF7A00" stroke="white" stroke-width="0.7"/>
</svg>
