<svg width="42" height="42" viewBox="0 0 42 42" fill="none" xmlns="http://www.w3.org/2000/svg">
<path d="M40.7243 8.64114H39.9485C39.9264 7.41388 38.9218 6.42214 37.6894 6.42214H35.812V3.49081C35.812 2.24464 34.7978 1.23047 33.5517 1.23047H8.44824C7.20175 1.23047 6.1879 2.24464 6.1879 3.49081V6.42214H4.31048C3.07809 6.42214 2.07353 7.41388 2.05142 8.64114H1.27565C0.572295 8.64114 0 9.21344 0 9.91679V16.4883C0 17.1916 0.572295 17.7639 1.27565 17.7639H4.05798C4.76133 17.7639 5.33362 17.1916 5.33362 16.4883V9.91679C5.33362 9.21344 4.76133 8.64114 4.05798 8.64114H3.28541C3.3072 8.09384 3.75805 7.65485 4.31048 7.65485H6.1879V30.5245C6.1879 30.8652 6.46379 31.1411 6.80441 31.1411C7.14472 31.1411 7.42093 30.8652 7.42093 30.5245V25.4409C7.72919 25.5992 8.07846 25.6889 8.44824 25.6889H33.5517C33.9215 25.6889 34.2707 25.5992 34.579 25.4409V35.3932C34.579 35.9597 34.1182 36.4205 33.5517 36.4205H8.44824C7.88171 36.4205 7.42093 35.9597 7.42093 35.3932V33.3738C7.42093 33.0335 7.14472 32.7573 6.80441 32.7573C6.46379 32.7573 6.1879 33.0335 6.1879 33.3738V35.3932C6.1879 36.6394 7.20175 37.6532 8.44824 37.6532H9.08943V39.0862C9.08943 40.0379 9.8636 40.8124 10.8156 40.8124H13.5867C14.5384 40.8124 15.3126 40.0379 15.3126 39.0862V37.6532H26.6873V39.0862C26.6873 40.0379 27.4615 40.8124 28.4132 40.8124H31.1843C32.1363 40.8124 32.9105 40.0379 32.9105 39.0862V37.6532H33.5517C34.7982 37.6532 35.812 36.6394 35.812 35.3932V7.65485H37.6894C38.2419 7.65485 38.6927 8.09384 38.7148 8.64114H37.9423C37.2389 8.64114 36.6663 9.21344 36.6663 9.91679V16.4883C36.6663 17.1916 37.2389 17.7639 37.9423 17.7639H40.7243C41.4276 17.7639 41.9999 17.1916 41.9999 16.4883V9.91679C41.9999 9.21344 41.4276 8.64114 40.7243 8.64114ZM4.05798 9.87385C4.08169 9.87385 4.10059 9.89308 4.10059 9.91679V16.4883C4.10059 16.512 4.08137 16.5312 4.05798 16.5312H1.27565C1.25194 16.5312 1.23271 16.512 1.23271 16.4883V9.91679C1.23271 9.89308 1.25194 9.87385 1.27565 9.87385H4.05798ZM14.0799 39.0862C14.0799 39.3579 13.8584 39.5794 13.5867 39.5794H10.8156C10.5436 39.5794 10.3225 39.3579 10.3225 39.0862V37.6532H14.0795V39.0862H14.0799ZM31.6775 39.0862C31.6775 39.3579 31.4564 39.5794 31.1843 39.5794H28.4132C28.1415 39.5794 27.92 39.3579 27.92 39.0862V37.6532H31.6775V39.0862ZM34.579 8.59308H9.6848C9.34449 8.59308 9.0686 8.86897 9.0686 9.20959C9.0686 9.5499 9.34449 9.82611 9.6848 9.82611H34.5793V21.5034H30.5069C30.1663 21.5034 29.8904 21.7793 29.8904 22.1199C29.8904 22.4605 30.1663 22.7364 30.5069 22.7364H34.5793V23.4289C34.5793 23.9951 34.1185 24.4562 33.552 24.4562H8.44824C7.88171 24.4562 7.42093 23.9951 7.42093 23.4289V22.7364H27.6301C27.9707 22.7364 28.2466 22.4605 28.2466 22.1199C28.2466 21.7793 27.9707 21.5034 27.6301 21.5034H21.5671L27.383 16.6417C27.6435 16.4238 27.6781 16.0358 27.4602 15.775C27.2423 15.5145 26.8543 15.4795 26.5938 15.6977L19.6487 21.5034H17.0016L22.8171 16.6417C23.078 16.4238 23.1126 16.0358 22.8947 15.7753C22.6768 15.5145 22.2887 15.4795 22.0279 15.6977L15.0831 21.5037H7.42093V6.62049H34.579V8.59308ZM34.579 5.38746H7.42093V3.49081C7.42093 2.92428 7.88171 2.4635 8.44824 2.4635H33.5517C34.1182 2.4635 34.579 2.92428 34.579 3.49081V5.38746ZM40.7672 16.4883C40.7672 16.512 40.748 16.5312 40.7243 16.5312H37.9423C37.9185 16.5312 37.8993 16.512 37.8993 16.4883V9.91679C37.8993 9.89308 37.9185 9.87385 37.9423 9.87385H40.7243C40.748 9.87385 40.7672 9.89308 40.7672 9.91679V16.4883Z" fill="#FF7A00"/>
<path d="M15.226 32.1822C15.7926 32.1822 16.2534 31.7211 16.2534 31.1546V30.1683C16.2534 28.8315 15.1658 27.7439 13.8286 27.7439H10.0478C9.48129 27.7439 9.02051 28.2047 9.02051 28.7712V29.7575C9.02051 31.0944 10.1081 32.1822 11.4452 32.1822H15.226ZM10.2532 29.7575V28.9766H13.8286C14.4858 28.9766 15.0203 29.5114 15.0203 30.1683V30.9492H11.4452C10.788 30.9492 10.2532 30.4144 10.2532 29.7575Z" fill="#FF7A00"/>
<path d="M30.5542 32.1822C31.8914 32.1822 32.9789 31.0944 32.9789 29.7575V28.7712C32.9789 28.2047 32.5182 27.7439 31.9516 27.7439H28.1708C26.834 27.7439 25.7461 28.8315 25.7461 30.1683V31.1546C25.7461 31.7211 26.2069 32.1822 26.7734 32.1822H30.5542ZM26.9788 30.1683C26.9788 29.5111 27.5136 28.9766 28.1708 28.9766H31.7459V29.7575C31.7459 30.4147 31.2114 30.9492 30.5542 30.9492H26.9788V30.1683Z" fill="#FF7A00"/>
<path d="M23.7211 35.4971C24.1565 35.4971 24.5106 35.143 24.5106 34.7075V33.0813C24.5106 32.6458 24.1565 32.2917 23.7211 32.2917H18.2788C17.8433 32.2917 17.4893 32.6458 17.4893 33.0813V34.7075C17.4893 35.143 17.8433 35.4971 18.2788 35.4971H23.7211ZM18.722 33.5245H23.2779V34.2643H18.722V33.5245Z" fill="#FF7A00"/>
</svg>
