<svg width="58" height="46" viewBox="0 0 58 46" fill="none" xmlns="http://www.w3.org/2000/svg">
<path d="M57.9614 27.1925V39.186C57.9614 39.7195 57.5288 40.1521 56.9953 40.1521H54.701C54.1675 40.1521 53.735 39.7195 53.735 39.186C53.735 38.6525 54.1675 38.22 54.701 38.22H56.0293V27.1925C56.0293 25.6506 55.2858 24.1902 54.0405 23.2861C50.3426 20.6016 43.2378 16.5664 34.4178 17.0257L35.0468 21.869C35.1155 22.398 34.7423 22.8827 34.2133 22.9514C33.684 23.0201 33.1995 22.6467 33.1308 22.1179L32.4917 17.1966C26.7944 17.9106 21.4633 20.4081 17.0184 24.4658H41.4256C42.8925 24.4658 44.2624 23.8112 45.1839 22.6697C45.519 22.2545 46.1272 22.1897 46.5424 22.5248C46.9575 22.8599 47.0224 23.4681 46.6873 23.8833C45.3973 25.4813 43.4795 26.3978 41.4257 26.3978H14.8014L4.05452 29.3831C2.80485 29.7302 1.93205 30.8785 1.93205 32.1755V37.9665H3.38108C3.91456 37.9665 4.3471 38.3991 4.3471 38.9326C4.3471 39.4661 3.91456 39.8986 3.38108 39.8986H0.966023C0.432537 39.8986 0 39.4661 0 38.9326V32.1755C0 30.0139 1.45459 28.1001 3.53733 27.5215L14.1402 24.5763C24.6632 13.5861 40.9996 11.4311 55.1755 21.7226C56.9199 22.9891 57.9614 25.0338 57.9614 27.1925ZM19.9242 38.9561C19.9242 42.6847 16.8907 45.7183 13.1621 45.7183C9.43345 45.7183 6.3999 42.6847 6.3999 38.9561C6.3999 35.2275 9.43345 32.194 13.1621 32.194C16.8907 32.194 19.9242 35.2275 19.9242 38.9561ZM17.9922 38.9561C17.9922 36.2928 15.8254 34.126 13.1621 34.126C10.4987 34.126 8.33194 36.2928 8.33194 38.9561C8.33194 41.6194 10.4987 43.7862 13.1621 43.7862C15.8254 43.7862 17.9922 41.6196 17.9922 38.9561ZM51.5615 38.9561C51.5615 42.6847 48.5279 45.7183 44.7993 45.7183C41.0707 45.7183 38.0371 42.6847 38.0371 38.9561C38.0371 35.2275 41.0707 32.194 44.7993 32.194C48.5279 32.194 51.5615 35.2275 51.5615 38.9561ZM49.6294 38.9561C49.6294 36.2928 47.4626 34.126 44.7993 34.126C42.136 34.126 39.9692 36.2928 39.9692 38.9561C39.9692 41.6194 42.136 43.7862 44.7993 43.7862C47.4626 43.7862 49.6294 41.6196 49.6294 38.9561ZM35.3806 38.2316H22.943C22.4095 38.2316 21.977 38.6641 21.977 39.1976C21.977 39.7311 22.4095 40.1636 22.943 40.1636H35.3806C35.9141 40.1636 36.3466 39.7311 36.3466 39.1976C36.3466 38.6641 35.9141 38.2316 35.3806 38.2316ZM50.9706 11.0326C52.1005 12.1625 51.31 14.1246 49.6898 14.1246C48.0884 14.1246 47.2672 12.1743 48.409 11.0326C48.7512 10.6905 49.2061 10.502 49.6898 10.502C50.5034 10.5022 50.9706 11.0326 50.9706 11.0326ZM54.1299 9.23956C54.5072 8.86233 54.5072 8.25059 54.1299 7.87336C51.6758 5.4193 47.704 5.41918 45.2498 7.87336C44.8725 8.25059 44.8725 8.86221 45.2498 9.23956C45.6271 9.61679 46.2387 9.61679 46.6159 9.23956C48.3149 7.54057 51.0644 7.54045 52.7637 9.23956C53.1409 9.61679 53.7525 9.61679 54.1299 9.23956ZM43.0298 5.65332C46.7108 1.97229 52.6685 1.97205 56.3499 5.65332C56.5385 5.84194 56.7857 5.93625 57.033 5.93625C57.8859 5.93625 58.3264 4.89741 57.7161 4.28712C53.28 -0.148852 46.1 -0.149335 41.6637 4.28712C41.2864 4.66436 41.2864 5.27597 41.6637 5.65332C42.0408 6.03067 42.6526 6.03067 43.0298 5.65332Z" fill="#FF7A00"/>
</svg>
