<svg width="16" height="16" viewBox="0 0 16 16" fill="none" xmlns="http://www.w3.org/2000/svg">
<path d="M10.6064 8.08208L16.0004 11.4921V4.52808L10.6064 8.08208Z" fill="#B9B9B9"/>
<path d="M0 4.52808V11.4921L5.394 8.08208L0 4.52808Z" fill="#B9B9B9"/>
<path d="M15.0003 2.5H1.00027C0.501274 2.5 0.105273 2.872 0.0302734 3.351L8.00027 8.602L15.9703 3.351C15.8953 2.872 15.4993 2.5 15.0003 2.5Z" fill="#B9B9B9"/>
<path d="M9.69023 8.68606L8.27523 9.61806C8.19123 9.67306 8.09623 9.70006 8.00023 9.70006C7.90423 9.70006 7.80923 9.67306 7.72523 9.61806L6.31023 8.68506L0.0322266 12.6561C0.109227 13.1311 0.503227 13.5001 1.00023 13.5001H15.0002C15.4972 13.5001 15.8912 13.1311 15.9682 12.6561L9.69023 8.68606Z" fill="#B9B9B9"/>
</svg>
