<svg width="40" height="40" viewBox="0 0 40 40" fill="none" xmlns="http://www.w3.org/2000/svg">
<path d="M27.9998 13.3317V15.9985C28.0043 17.4159 26.8963 18.5877 25.4809 18.6627C24.0655 18.7376 22.84 17.6893 22.6949 16.2794C21.3757 17.4898 19.4129 17.6762 17.8894 16.7359C16.3659 15.7955 15.6528 13.9574 16.1434 12.2356C16.6341 10.5137 18.2091 9.32767 19.9994 9.33166C20.3676 9.33166 20.6661 9.63011 20.6661 9.99833C20.6661 10.3666 20.3676 10.665 19.9994 10.665C18.5266 10.665 17.3327 11.859 17.3327 13.3318C17.3327 14.8046 18.5266 15.9986 19.9994 15.9986C21.4722 15.9986 22.6662 14.8046 22.6662 13.3318C22.6662 12.9636 22.9647 12.6651 23.3329 12.6651C23.7011 12.6651 23.9995 12.9636 23.9995 13.3318V15.9986C23.9995 16.735 24.5965 17.332 25.333 17.332C26.0694 17.332 26.6664 16.735 26.6664 15.9986V13.3318C26.6664 9.64972 23.6815 6.6648 19.9994 6.6648C16.3174 6.6648 13.3324 9.64972 13.3324 13.3318C13.3324 17.0138 16.3174 19.9988 19.9994 19.9988C20.3676 19.9988 20.6661 20.2972 20.6661 20.6654C20.6661 21.0337 20.3676 21.3321 19.9994 21.3321C15.5809 21.3321 11.999 17.7502 11.999 13.3317C11.999 8.9132 15.5809 5.3313 19.9994 5.3313C24.4179 5.3313 27.9998 8.9132 27.9998 13.3317Z" fill="#FF7A00"/>
<path fill-rule="evenodd" clip-rule="evenodd" d="M39.9656 15.1576C39.9797 15.2016 39.9888 15.247 39.9929 15.2929C39.9933 15.2996 39.9951 15.3059 39.997 15.3121C39.999 15.3189 40.0009 15.3256 40.001 15.3329V38.0008C40 38.4248 39.8629 38.8373 39.6096 39.1775C39.6076 39.1805 39.6064 39.1835 39.6051 39.1867C39.6039 39.1897 39.6026 39.1929 39.6003 39.1962C39.5979 39.1996 39.5946 39.2018 39.5912 39.204C39.5881 39.2061 39.5849 39.2083 39.5823 39.2115C39.2073 39.707 38.6223 39.9989 38.0009 40.0008H1.99905C1.38003 39.9981 0.797502 39.7076 0.422951 39.2147C0.419411 39.2108 0.414917 39.2073 0.410781 39.204C0.407159 39.2012 0.403811 39.1986 0.401622 39.1961C0.399074 39.1931 0.39772 39.1896 0.396345 39.186C0.395232 39.183 0.394107 39.1801 0.392325 39.1774C0.139109 38.8373 0.00191411 38.4248 0.000976562 38.0007V15.331C0.000976562 15.324 0.00296878 15.3175 0.00496104 15.311C0.00695336 15.3045 0.00894572 15.298 0.00894572 15.291C0.0132428 15.2457 0.0223839 15.201 0.0362909 15.1577C0.045432 15.1184 0.0580888 15.0799 0.0742615 15.043C0.0929344 15.0067 0.115279 14.9726 0.140906 14.9409C0.16661 14.9034 0.196377 14.8687 0.229582 14.8376C0.234696 14.8331 0.238434 14.8278 0.2422 14.8226C0.246258 14.8168 0.250348 14.8111 0.256224 14.8062L6.66585 9.82669V4.66573C6.66585 3.56106 7.56136 2.66562 8.66595 2.66562H15.891L18.7845 0.419494C19.4992 -0.137878 20.5013 -0.137878 21.216 0.419494L24.1088 2.66562H31.3339C32.4385 2.66562 33.334 3.56114 33.334 4.66573V9.82661L39.7457 14.8062C39.7515 14.811 39.7556 14.8167 39.7596 14.8224C39.7634 14.8277 39.7671 14.833 39.7723 14.8375C39.8055 14.8687 39.8353 14.9033 39.861 14.9409C39.8866 14.9725 39.9089 15.0067 39.9276 15.0429C39.9437 15.0799 39.9564 15.1183 39.9656 15.1576ZM20.3952 1.4715C20.1624 1.28649 19.8327 1.28649 19.5999 1.4715L18.0664 2.66555H21.9333L20.3952 1.4715ZM19.5999 25.1261L2.16702 38.6675H37.8328L20.3953 25.1261C20.1624 24.9414 19.8329 24.9414 19.5999 25.1261ZM38.6674 37.6279L21.216 24.074C20.5012 23.5171 19.4993 23.5171 18.7845 24.074L1.33229 37.628V16.3483L12.2575 24.8321C12.5486 25.0578 12.9676 25.0048 13.1933 24.7137C13.419 24.4226 13.366 24.0037 13.0749 23.7779L1.97569 15.1595L6.66593 11.5147V16.6663C6.66593 17.0345 6.96446 17.3329 7.3326 17.3329C7.70082 17.3329 7.99927 17.0344 7.99927 16.6663V4.66565C7.99927 4.29743 8.29773 3.99897 8.66595 3.99897H31.3337C31.702 3.99897 32.0004 4.29743 32.0004 4.66565V16.6663C32.0004 17.0345 32.2989 17.3329 32.6671 17.3329C33.0353 17.3329 33.3338 17.0344 33.3338 16.6663V11.5147L38.024 15.1595L26.9055 23.7933C26.7142 23.9383 26.6155 24.1748 26.6473 24.4127C26.679 24.6506 26.8361 24.8532 27.0587 24.9429C27.2813 25.0327 27.535 24.996 27.7229 24.8467L38.6674 16.3483V37.6279Z" fill="#FF7A00"/>
</svg>
