<svg width="56" height="39" viewBox="0 0 56 39" fill="none" xmlns="http://www.w3.org/2000/svg">

<path d="M55.0929 36.9569C49.2831 36.9569 45.8269 35.5269 42.4844 34.144C39.2979 32.8256 36.0028 31.4623 30.9028 31.4623C26.4982 31.4623 22.2748 33.0971 18.5485 34.5395C15.3367 35.7826 12.3032 36.9569 9.61555 36.9569H6.67089C8.39069 36.2314 10.3523 35.3242 12.4985 34.3316C20.6668 30.5543 30.8323 25.8532 38.6436 25.8532C48.1952 25.8532 54.4872 30.2169 54.5496 30.261C54.9503 30.5447 55.5181 30.4676 55.8186 30.0886C56.1191 29.7094 56.0379 29.1711 55.6371 28.8867C55.4094 28.725 50.8326 25.535 43.4212 24.4754V23.0217C45.0853 22.709 46.324 21.557 46.324 20.1869C46.324 19.5164 45.979 17.8714 45.4217 16.3827C44.6065 14.2053 43.6554 13.1469 42.514 13.1469C41.7167 13.1469 41.0123 13.6642 40.3822 14.7178C40.1964 13.6633 39.8291 12.2374 39.3336 10.9002C38.2957 8.09855 37.1204 6.73657 35.7408 6.73657C34.3613 6.73657 33.186 8.09855 32.148 10.9003C31.4162 12.8754 30.9633 15.0457 30.9633 15.9237C30.9633 17.6919 32.6318 19.1683 34.8337 19.4918V23.6381C29.5785 21.0677 24.3006 19.9814 19.1244 20.4097C14.9417 20.7558 11.7133 22.0308 9.69707 23.0737C7.01826 22.1002 4.1105 21.3888 0.907127 21.3888C0.406151 21.3888 0 21.7732 0 22.2474C0 22.7215 0.406151 23.1059 0.907127 23.1059C6.15698 23.1059 10.7027 25.243 14.7132 27.1284C16.478 27.9581 18.0926 28.717 19.6167 29.2307C16.8708 30.3987 14.1952 31.6359 11.7021 32.7888C7.06701 34.9323 2.68909 36.9569 0.907127 36.9569C0.406151 36.9569 0 37.3413 0 37.8154C0 38.2895 0.406151 38.6739 0.907127 38.6739H9.61555C12.6599 38.6739 15.8538 37.4376 19.2352 36.1288C22.9813 34.6788 26.855 33.1793 30.9028 33.1793C35.6236 33.1793 38.6032 34.4122 41.7577 35.7173C45.271 37.1708 48.904 38.6739 55.0929 38.6739C55.5938 38.6739 56 38.2895 56 37.8154C56 37.3413 55.5938 36.9569 55.0929 36.9569ZM38.6436 24.1361C37.9912 24.1361 37.3253 24.1665 36.6479 24.2239V19.4917C37.5188 19.3638 38.3062 19.056 38.9398 18.6206C38.7882 19.289 38.7041 19.8565 38.7041 20.1869C38.7041 21.5569 39.9428 22.7089 41.6069 23.0217V24.2664C40.6577 24.1831 39.6695 24.1361 38.6436 24.1361ZM41.2328 17.186C41.7995 15.5872 42.3198 15.0034 42.514 14.8804C42.7083 15.0034 43.2286 15.5872 43.7953 17.186C44.2552 18.4838 44.5097 19.7842 44.5097 20.1869C44.5097 20.6332 44.0559 21.0407 43.4212 21.247V20.4158C43.4212 19.9417 43.015 19.5573 42.514 19.5573C42.0131 19.5573 41.6069 19.9417 41.6069 20.4158V21.247C40.9722 21.0407 40.5184 20.6332 40.5184 20.1869C40.5184 19.7842 40.7728 18.4838 41.2328 17.186ZM32.7775 15.9237C32.7775 15.2834 33.1894 13.2788 33.86 11.4686C34.7875 8.96532 35.5795 8.45363 35.7408 8.45363C35.9022 8.45363 36.6941 8.96532 37.6216 11.4685C38.2923 13.2787 38.7041 15.2833 38.7041 15.9235C38.7041 16.7593 37.8266 17.4903 36.6479 17.7449V15.837C36.6479 15.3629 36.2418 14.9785 35.7408 14.9785C35.2398 14.9785 34.8337 15.3629 34.8337 15.837V17.745C33.655 17.4904 32.7775 16.7593 32.7775 15.9237ZM15.5203 25.5906C14.3606 25.0454 13.1577 24.4801 11.9045 23.9476C13.7371 23.1559 16.2337 22.3725 19.2825 22.1201C23.818 21.745 28.4573 22.6263 33.1037 24.74C29.6107 25.4385 25.9281 26.6793 22.3034 28.1229C20.3603 27.864 18.1118 26.809 15.5203 25.5906Z" fill="#FF7A00"/>

<path d="M8.64794 8.4536H10.7311C10.8554 9.06316 11.1086 9.62979 11.4641 10.126L9.99037 11.5208C9.63611 11.8561 9.63611 12.3998 9.99037 12.7349C10.1674 12.9025 10.3997 12.9864 10.6318 12.9864C10.8639 12.9864 11.0961 12.9026 11.2732 12.7349L12.7469 11.3401C13.2713 11.6765 13.87 11.9161 14.514 12.0339V14.0054C14.514 14.4796 14.9202 14.864 15.4212 14.864C15.9221 14.864 16.3283 14.4796 16.3283 14.0054V12.0339C16.9723 11.9162 17.5711 11.6765 18.0954 11.3401L19.5692 12.7349C19.7462 12.9025 19.9784 12.9864 20.2106 12.9864C20.4427 12.9864 20.6749 12.9026 20.852 12.7349C21.2062 12.3996 21.2062 11.856 20.852 11.5208L19.3782 10.126C19.7336 9.62979 19.9869 9.06316 20.1113 8.4536H22.1944C22.6954 8.4536 23.1015 8.06921 23.1015 7.59507C23.1015 7.12093 22.6954 6.73654 22.1944 6.73654H20.1113C19.9869 6.12698 19.7338 5.56035 19.3782 5.06412L20.852 3.66929C21.2062 3.33401 21.2062 2.79039 20.852 2.45522C20.4977 2.11993 19.9233 2.11993 19.5692 2.45522L18.0954 3.85004C17.5711 3.51361 16.9723 3.27403 16.3283 3.15623V1.1847C16.3283 0.710565 15.9221 0.326172 15.4212 0.326172C14.9202 0.326172 14.514 0.710565 14.514 1.1847V3.15623C13.87 3.27391 13.2713 3.51361 12.7469 3.85004L11.2732 2.45522C10.9189 2.11993 10.3445 2.11993 9.99037 2.45522C9.63611 2.7905 9.63611 3.33412 9.99037 3.66929L11.4641 5.06412C11.1087 5.56035 10.8554 6.12698 10.7311 6.73654H8.64794C8.14697 6.73654 7.74081 7.12093 7.74081 7.59507C7.74081 8.06921 8.14697 8.4536 8.64794 8.4536ZM15.4212 4.79054C17.0551 4.79054 18.3844 6.04868 18.3844 7.59507C18.3844 9.14146 17.0551 10.3996 15.4212 10.3996C13.7872 10.3996 12.4579 9.14146 12.4579 7.59507C12.4579 6.04868 13.7872 4.79054 15.4212 4.79054Z" fill="#FF7A00"/>
</svg>
