<svg width="17" height="25" viewBox="0 0 17 25" fill="none" xmlns="http://www.w3.org/2000/svg">
<path d="M8.25486 0C3.79509 0 0.166626 3.73843 0.166626 8.33335C0.166626 9.71274 0.501355 11.0804 1.13769 12.2935L7.81255 24.7314C7.90141 24.8973 8.07074 25 8.25486 25C8.43898 25 8.60831 24.8973 8.69717 24.7314L15.3745 12.2894C16.0084 11.0804 16.3431 9.7127 16.3431 8.3333C16.3431 3.73843 12.7146 0 8.25486 0ZM8.25486 12.5C6.02498 12.5 4.21077 10.6308 4.21077 8.33335C4.21077 6.03589 6.02498 4.1667 8.25486 4.1667C10.4847 4.1667 12.299 6.03589 12.299 8.33335C12.299 10.6308 10.4847 12.5 8.25486 12.5Z" fill="white"/>
</svg>
