<svg width="47" height="47" viewBox="0 0 47 47" fill="none" xmlns="http://www.w3.org/2000/svg">
<path d="M44.8883 22.0478C45.9016 20.5052 46.4332 18.7272 46.4332 16.8579C46.4332 14.3758 45.4812 12.0284 43.7526 10.2481C42.3073 8.75953 40.45 7.80099 38.4317 7.48337C38.5197 7.06505 38.564 6.6371 38.564 6.20262C38.5641 2.78255 35.7816 0 32.3614 0C28.9412 0 26.1587 2.78255 26.1587 6.20262C26.1587 6.93507 26.2853 7.64998 26.5309 8.3235C21.7757 8.60228 17.9922 12.5592 17.9922 17.383C17.9922 19.6325 18.7993 21.7437 20.2797 23.4047C19.6194 24.5793 19.2734 25.8983 19.2734 27.2606C19.2734 31.6119 22.8134 35.1519 27.1647 35.1519C29.078 35.1519 30.8997 34.452 32.3125 33.237V45.1641H22.582V41.7649C23.6635 41.2741 24.418 40.1847 24.418 38.9219C24.418 37.2009 23.0179 35.8008 21.2969 35.8008H3.12109C1.40009 35.8008 0 37.2009 0 38.9219C0 40.1848 0.754479 41.2742 1.83594 41.7649V46.082C1.83594 46.589 2.247 47 2.75391 47H6.42578C6.93268 47 7.34375 46.589 7.34375 46.082V42.043H17.0742V45.1641H16.2021C15.6952 45.1641 15.2842 45.575 15.2842 46.082C15.2842 46.589 15.6952 47 16.2021 47H37.3613C37.8682 47 38.2793 46.589 38.2793 46.082C38.2793 45.575 37.8682 45.1641 37.3613 45.1641H34.1484V33.2669C35.5393 34.4634 37.3322 35.152 39.2218 35.152C43.5108 35.152 47 31.6627 47 27.3737C47 25.3827 46.2392 23.484 44.8883 22.0478ZM5.50781 45.1641H3.67188V42.043H5.50781V45.1641ZM20.7461 45.1641H18.9102V42.043H20.7461V45.1641ZM21.2969 40.207H17.9922H6.42578H3.12109C2.41242 40.207 1.83594 39.6305 1.83594 38.9219C1.83594 38.2132 2.41242 37.6367 3.12109 37.6367H21.2969C22.0055 37.6367 22.582 38.2132 22.582 38.9219C22.582 39.6305 22.0055 40.207 21.2969 40.207ZM39.2218 33.316C37.1478 33.316 35.2258 32.2298 34.1484 30.4661V26.1897C34.156 26.1828 34.1638 26.1765 34.1711 26.1693L39.3881 20.9523C39.7466 20.5938 39.7466 20.0125 39.3881 19.654C39.0296 19.2956 38.4486 19.2955 38.0898 19.654L34.1484 23.5955V15.0305C34.1484 14.5235 33.7374 14.1125 33.2305 14.1125C32.7236 14.1125 32.3125 14.5235 32.3125 15.0305V17.4126L31.5811 16.6811C31.2227 16.3227 30.6416 16.3227 30.2828 16.6811C29.9243 17.0396 29.9243 17.6209 30.2828 17.9793L32.3125 20.009V25.8964L29.8009 23.3849C29.8001 23.3841 29.7993 23.3831 29.7985 23.3823L27.58 21.1639C27.2214 20.8054 26.6404 20.8054 26.2817 21.1639C25.9233 21.5223 25.9233 22.1036 26.2817 22.4621L27.6453 23.8255L25.1532 25.1878C24.7083 25.4309 24.5448 25.9887 24.788 26.4336C24.9547 26.7387 25.2695 26.9114 25.5943 26.9114C25.7431 26.9114 25.8941 26.8752 26.0338 26.7987L28.9981 25.1783L32.3125 28.4928V30.4466C31.2109 32.2221 29.2593 33.3159 27.1647 33.3159C23.8258 33.3159 21.1093 30.5996 21.1093 27.2606C21.1093 26.0192 21.4836 24.8251 22.1915 23.8076C22.45 23.4362 22.3993 22.9317 22.0718 22.6192C20.625 21.2384 19.8281 19.3788 19.8281 17.383C19.8281 13.3913 23.0756 10.1438 27.0673 10.1438C27.3565 10.1438 27.6489 10.1626 27.9612 10.201C28.3239 10.2454 28.6777 10.0714 28.8634 9.75737C29.0492 9.44324 29.0314 9.04897 28.8179 8.75302C28.2793 8.00625 27.9946 7.12436 27.9946 6.20281C27.9946 3.79497 29.9535 1.83612 32.3613 1.83612C34.7691 1.83612 36.728 3.79497 36.728 6.20281C36.728 6.80095 36.6089 7.38084 36.3741 7.92657C36.254 8.20554 36.2797 8.52573 36.4425 8.78193C36.6054 9.03814 36.8844 9.19731 37.188 9.20695C41.3427 9.33941 44.5971 12.7001 44.5971 16.8579C44.5971 18.5922 44.0296 20.2289 42.9562 21.5914C42.6513 21.9783 42.7061 22.5369 43.0805 22.8571C44.4047 23.9896 45.1641 25.6358 45.1641 27.3736C45.1641 30.6503 42.4984 33.316 39.2218 33.316Z" fill="#FF7A00"/>
<path d="M41.773 45.433C41.6023 45.2623 41.3655 45.1641 41.1241 45.1641C40.8826 45.1641 40.6457 45.2623 40.4751 45.433C40.3043 45.6038 40.2061 45.8406 40.2061 46.082C40.2061 46.3235 40.3042 46.5603 40.4751 46.731C40.6457 46.9018 40.8826 47 41.1241 47C41.3655 47 41.6023 46.9018 41.773 46.731C41.9437 46.5603 42.0421 46.3235 42.0421 46.082C42.0421 45.8406 41.9438 45.6038 41.773 45.433Z" fill="#FF7A00"/>
<path d="M9.60792 15.7878C8.24437 15.3777 6.82492 15.798 5.89556 16.7558C5.63376 16.4854 5.32881 16.2542 4.98779 16.0709C4.12031 15.6046 3.12302 15.5041 2.17999 15.7878C1.69457 15.9339 1.41937 16.4458 1.56541 16.9313C1.71137 17.4166 2.22351 17.6917 2.70893 17.5458C3.18242 17.4034 3.68308 17.4538 4.11856 17.6879C4.55414 17.922 4.8724 18.3117 5.01487 18.7852C5.13154 19.1732 5.48881 19.4388 5.89391 19.4388C6.29901 19.4388 6.65629 19.1732 6.77296 18.7852C7.06708 17.8079 8.10153 17.2519 9.07899 17.5459C9.5645 17.6919 10.0764 17.4168 10.2225 16.9313C10.3686 16.4458 10.0933 15.9339 9.60792 15.7878Z" fill="#FF7A00"/>
<path d="M15.4639 9.01675C14.5211 8.7331 13.5238 8.83353 12.6562 9.29976C12.3158 9.48271 12.0114 9.7134 11.75 9.9831C11.4886 9.7134 11.1842 9.48271 10.8438 9.29976C9.97621 8.83343 8.97874 8.73301 8.03608 9.01675C7.55057 9.1628 7.27545 9.67475 7.4215 10.1604C7.56755 10.6459 8.07987 10.9208 8.56502 10.7749C9.03823 10.6326 9.53898 10.6829 9.97456 10.917C10.4101 11.1511 10.7285 11.5408 10.871 12.0144C10.9876 12.4023 11.3449 12.6679 11.75 12.6679C12.1551 12.6679 12.5124 12.4023 12.629 12.0144C12.7715 11.5409 13.0899 11.1512 13.5254 10.917C13.9609 10.683 14.4615 10.6326 14.935 10.7749C15.4204 10.9209 15.9323 10.6458 16.0785 10.1604C16.2246 9.67484 15.9494 9.16289 15.4639 9.01675Z" fill="#FF7A00"/>
<path d="M27.0673 12.0104H27.0602C26.5533 12.0104 26.1458 12.4214 26.1458 12.9283C26.1458 13.4353 26.5604 13.8463 27.0673 13.8463C27.5742 13.8463 27.9853 13.4353 27.9853 12.9283C27.9853 12.4214 27.5743 12.0104 27.0673 12.0104Z" fill="#FF7A00"/>
<path d="M24.4757 13.6455C24.1088 13.2956 23.5276 13.3097 23.1779 13.6766C22.2213 14.68 21.6946 15.9964 21.6946 17.383C21.6946 17.89 22.1057 18.301 22.6126 18.301C23.1195 18.301 23.5306 17.89 23.5306 17.383C23.5306 16.4702 23.8772 15.6037 24.5068 14.9434C24.8567 14.5764 24.8427 13.9953 24.4757 13.6455Z" fill="#FF7A00"/>
</svg>
