<svg width="23" height="20" viewBox="0 0 23 20" fill="none" xmlns="http://www.w3.org/2000/svg">
<path d="M0.00489012 14.525C0.00489012 17.5489 2.45608 20 5.47992 20C8.5038 20 10.955 17.5489 10.955 14.525C10.955 11.5011 8.5038 9.04994 5.47992 9.04994C4.85848 9.04994 4.26361 9.15828 3.70672 9.34919C4.93883 2.28267 10.4494 -2.27443 5.34112 1.47615C-0.323149 5.63514 -0.0011763 14.3576 0.00516175 14.5175C0.00516175 14.52 0.00489012 14.5222 0.00489012 14.525Z" fill="#00B2FF"/>
<path d="M12.0498 14.525C12.0498 17.5489 14.501 20 17.5249 20C20.5488 20 23 17.5489 23 14.525C23 11.5011 20.5487 9.04994 17.5249 9.04994C16.9034 9.04994 16.3085 9.15828 15.7517 9.34919C16.9838 2.28267 22.4943 -2.27443 17.3861 1.47615C11.7218 5.63514 12.0437 14.3576 12.0501 14.5175C12.0501 14.52 12.0498 14.5222 12.0498 14.525Z" fill="#00B2FF"/>
</svg>
