<svg width="47" height="47" viewBox="0 0 47 47" fill="none" xmlns="http://www.w3.org/2000/svg">

<path d="M38.681 41.8594C36.533 41.8594 35.4204 42.7215 34.4385 43.4816C33.5272 44.1873 32.7399 44.7969 31.0949 44.7969C29.4484 44.7969 28.6612 44.1873 27.7491 43.4816C26.7665 42.7215 25.6532 41.8594 23.5051 41.8594C21.3578 41.8594 20.2445 42.7215 19.2627 43.4816C18.3506 44.1873 17.564 44.7969 15.9183 44.7969C14.2711 44.7969 13.4839 44.1873 12.5718 43.4816C11.5884 42.7215 10.4751 41.8594 8.32634 41.8594C6.17756 41.8594 5.06425 42.7215 4.08092 43.4816C3.16883 44.1873 2.38158 44.7969 0.734375 44.7969V46.2656C2.88316 46.2656 3.99647 45.4035 4.9798 44.6434C5.89116 43.9377 6.67914 43.3281 8.32634 43.3281C9.97355 43.3281 10.7608 43.9377 11.6729 44.6434C12.6555 45.4035 13.7695 46.2656 15.9183 46.2656C18.0664 46.2656 19.1789 45.4035 20.1615 44.6427C21.0729 43.9377 21.8594 43.3281 23.5051 43.3281C25.1509 43.3281 25.9381 43.9377 26.8502 44.6434C27.8321 45.4035 28.9461 46.2656 31.0949 46.2656C33.243 46.2656 34.3555 45.4035 35.3374 44.6434C36.248 43.9377 37.036 43.3281 38.681 43.3281C40.326 43.3281 41.1133 43.9377 42.0239 44.6434C43.0057 45.4035 44.1183 46.2656 46.2656 46.2656V44.7969C44.6206 44.7969 43.8334 44.1873 42.9228 43.4816C41.9409 42.7215 40.8283 41.8594 38.681 41.8594Z" fill="#FF7A00"/>

<path d="M38.681 37.4531C36.533 37.4531 35.4204 38.3153 34.4385 39.0754C33.5272 39.7811 32.7399 40.3906 31.0949 40.3906C29.4484 40.3906 28.6612 39.7811 27.7491 39.0754C26.7665 38.3153 25.6532 37.4531 23.5051 37.4531C21.3578 37.4531 20.2445 38.3153 19.2627 39.0754C18.3506 39.7811 17.564 40.3906 15.9183 40.3906C14.2711 40.3906 13.4839 39.7811 12.5718 39.0754C11.5884 38.3153 10.4751 37.4531 8.32634 37.4531C6.17756 37.4531 5.06425 38.3153 4.08092 39.0754C3.16883 39.7811 2.38158 40.3906 0.734375 40.3906V41.8594C2.88316 41.8594 3.99647 40.9972 4.9798 40.2371C5.89116 39.5314 6.67914 38.9219 8.32634 38.9219C9.97355 38.9219 10.7608 39.5314 11.6729 40.2371C12.6555 40.9972 13.7695 41.8594 15.9183 41.8594C18.0664 41.8594 19.1789 40.9972 20.1615 40.2364C21.0729 39.5314 21.8594 38.9219 23.5051 38.9219C25.1509 38.9219 25.9381 39.5314 26.8502 40.2371C27.8321 40.9972 28.9461 41.8594 31.0949 41.8594C33.243 41.8594 34.3555 40.9972 35.3374 40.2371C36.248 39.5314 37.036 38.9219 38.681 38.9219C40.326 38.9219 41.1133 39.5314 42.0239 40.2371C43.0057 40.9972 44.1183 41.8594 46.2656 41.8594V40.3906C44.6206 40.3906 43.8334 39.7811 42.9228 39.0754C41.9409 38.3153 40.8283 37.4531 38.681 37.4531Z" fill="#FF7A00"/>

<path d="M42.9228 34.6691C42.1157 34.0442 41.2095 33.3582 39.7223 33.1313C41.5561 30.9546 42.5938 28.1912 42.5938 25.3154C42.5938 23.9098 41.4496 22.7656 40.044 22.7656C39.0724 22.7656 38.1978 23.3054 37.763 24.1749C37.2916 25.1178 36.3442 25.7031 35.2911 25.7031H33.0469V18.9491L33.9054 18.7581C37.2916 18.0061 39.6562 15.0576 39.6562 11.5884V8.38216L39.7194 8.319C40.1461 7.89233 40.3906 7.30189 40.3906 6.69823C40.3906 6.0373 40.105 5.44539 39.6562 5.0268V3.67188C39.6562 2.05184 38.3388 0.734375 36.7188 0.734375C35.0987 0.734375 33.7812 2.05184 33.7812 3.67188V7.77409L29.071 12.4844H27.3731C28.5973 11.407 29.375 9.83328 29.375 8.07812C29.375 4.8388 26.7393 2.20312 23.5 2.20312C20.2607 2.20312 17.625 4.8388 17.625 8.07812C17.625 9.83328 18.4027 11.407 19.6269 12.4844H15.4219C14.2072 12.4844 13.2188 11.4959 13.2188 10.2812V3.67188C13.2188 2.05184 11.9013 0.734375 10.2812 0.734375C8.66122 0.734375 7.34375 2.05184 7.34375 3.67188V11.5884C7.34375 15.0576 9.70844 18.0054 13.0946 18.7581L13.9531 18.9491V25.7031H11.7089C10.655 25.7031 9.7077 25.1178 9.23697 24.1749C8.80148 23.3054 7.92758 22.7656 6.956 22.7656C5.55041 22.7656 4.40625 23.9098 4.40625 25.3154C4.40625 27.9239 5.26033 30.4619 6.80692 32.5453L5.78761 33.5646C5.10831 33.876 4.57663 34.2858 4.08019 34.6691C3.16883 35.3748 2.38158 35.9844 0.734375 35.9844V37.4531C2.88316 37.4531 3.99647 36.591 4.9798 35.8309C5.89116 35.1252 6.67914 34.5156 8.32634 34.5156C9.97355 34.5156 10.7608 35.1252 11.6729 35.8309C12.6555 36.591 13.7695 37.4531 15.9183 37.4531C18.0664 37.4531 19.1789 36.591 20.1615 35.8302C21.0729 35.1252 21.8594 34.5156 23.5051 34.5156C25.1509 34.5156 25.9381 35.1252 26.8502 35.8309C27.8321 36.591 28.9461 37.4531 31.0949 37.4531C33.243 37.4531 34.3555 36.591 35.3374 35.8309C36.248 35.1252 37.036 34.5156 38.681 34.5156C40.326 34.5156 41.1133 35.1252 42.0239 35.8309C43.0057 36.591 44.1183 37.4531 46.2656 37.4531V35.9844C44.6206 35.9844 43.8334 35.3748 42.9228 34.6691ZM22.3353 25.7031L23.804 24.2344H31.5781V25.7031H22.3353ZM31.5781 19.8281H28.2103L31.5781 16.4603V19.8281ZM26.7415 21.2969H31.5781V22.7656H25.2728L26.7415 21.2969ZM38.1875 11.5884C38.1875 14.3629 36.2957 16.7217 33.5866 17.3239L33.0469 17.4436V14.9915L38.1875 9.85091V11.5884ZM35.25 3.67188C35.25 2.86186 35.9087 2.20312 36.7188 2.20312C37.5288 2.20312 38.1875 2.86186 38.1875 3.67188V4.41506C38.1574 4.41433 38.1287 4.40625 38.0986 4.40625C37.495 4.40625 36.9045 4.6508 36.4779 5.07747L35.25 6.30534V3.67188ZM27.6022 13.9531L23.9538 17.6015L21.2778 13.9531H27.6022ZM19.0938 8.07812C19.0938 5.64808 21.07 3.67188 23.5 3.67188C25.93 3.67188 27.9062 5.64808 27.9062 8.07812C27.9062 10.5082 25.93 12.4844 23.5 12.4844C21.07 12.4844 19.0938 10.5082 19.0938 8.07812ZM19.4558 13.9531L22.9022 18.6531L21.7272 19.8281H15.4219V13.9531H19.4558ZM18.7897 22.7656H15.4219V21.2969H20.2585L18.7897 22.7656ZM13.4134 17.3239C10.7042 16.7225 8.8125 14.3636 8.8125 11.5884V3.67188C8.8125 2.86186 9.47123 2.20312 10.2812 2.20312C11.0913 2.20312 11.75 2.86186 11.75 3.67188V10.2812C11.75 11.783 12.6584 13.0733 13.9531 13.6418V17.4436L13.4134 17.3239ZM15.4219 24.2344H17.321L15.8522 25.7031H15.4219V24.2344ZM5.875 25.3154C5.875 24.7191 6.35969 24.2344 6.956 24.2344C7.36872 24.2344 7.73884 24.4635 7.92317 24.8314C8.64433 26.2752 10.0955 27.1719 11.7089 27.1719H14.3835L12.8435 28.7119L11.2873 29.1011C10.3841 29.3273 9.55789 29.7936 8.89916 30.4531L7.85414 31.4981C6.57559 29.7003 5.875 27.5361 5.875 25.3154ZM8.37922 33.0498L9.93756 31.4915C10.4083 31.0207 10.9973 30.6866 11.6428 30.5258L13.5933 30.0389L37.5163 6.11588C37.6698 5.96239 37.882 5.875 38.0986 5.875C38.5525 5.875 38.9219 6.24439 38.9219 6.69823C38.9219 6.91488 38.8345 7.12711 38.681 7.28059L14.7587 31.2029L14.2718 33.1534C14.1103 33.7989 13.7761 34.3886 13.3061 34.8586L13.0998 35.0649C12.9243 34.9386 12.7502 34.8064 12.5725 34.6691C11.5973 33.9156 10.4913 33.0645 8.37922 33.0498ZM34.4385 34.6691C33.5272 35.3748 32.7399 35.9844 31.0949 35.9844C29.4484 35.9844 28.6612 35.3748 27.7491 34.6691C26.7665 33.909 25.6532 33.0469 23.5051 33.0469C21.3578 33.0469 20.2445 33.909 19.2627 34.6691C18.3506 35.3748 17.564 35.9844 15.9183 35.9844C15.3345 35.9844 14.863 35.9051 14.451 35.7751C15.0503 35.1369 15.4828 34.3607 15.6958 33.5095L16.085 31.9534L20.8665 27.1719H35.2911C36.9045 27.1719 38.3557 26.2752 39.0768 24.8314C39.2612 24.4635 39.632 24.2344 40.044 24.2344C40.6403 24.2344 41.125 24.7191 41.125 25.3154C41.125 28.2749 39.8817 31.103 37.7197 33.1181C36.1827 33.3311 35.2603 34.0324 34.4385 34.6691Z" fill="#FF7A00"/>

<path d="M37.2167 28.3109C36.6027 28.5298 35.9543 28.6406 35.2911 28.6406H30.8724V30.1094H35.2911C36.1232 30.1094 36.9369 29.9699 37.7102 29.6937L37.2167 28.3109Z" fill="#FF7A00"/>

<path d="M27.9062 28.6406H29.375V30.1094H27.9062V28.6406Z" fill="#FF7A00"/>

<path d="M24.9688 28.6406H26.4375V30.1094H24.9688V28.6406Z" fill="#FF7A00"/>
</svg>
