<svg width="34" height="40" viewBox="0 0 34 40" fill="none" xmlns="http://www.w3.org/2000/svg">
<path d="M33.2672 8.95047L24.5716 0.254766C24.4089 0.0913281 24.188 0 23.9567 0H3.08719C1.64891 0 0.478516 1.17047 0.478516 2.60867V37.3913C0.478516 38.8295 1.64898 39.9999 3.08719 39.9999H30.9133C32.3507 39.9999 33.5211 38.8304 33.522 37.393C33.522 37.3921 33.522 37.3921 33.522 37.3913V9.56523C33.522 9.33477 33.4307 9.11305 33.2672 8.95047ZM7.435 10.4348V6.95648H21.348V10.4348H7.435ZM31.7828 37.3913C31.7828 37.8713 31.3933 38.2609 30.9133 38.2609H3.08719C2.60805 38.2609 2.21766 37.8713 2.21766 37.3913V2.60867C2.21766 2.12953 2.60813 1.73914 3.08719 1.73914H21.348V5.21742H6.56547C6.08547 5.21742 5.69594 5.60695 5.69594 6.08695V11.3044C5.69594 11.7844 6.08547 12.1739 6.56547 12.1739H22.2177H31.7829V37.3913H31.7828ZM31.7828 10.4348H23.0872V1.73914H23.5967L31.7828 9.92523V10.4348Z" fill="#FF7A00"/>
<path d="M6.56582 17.3914H17.0006C17.4806 17.3914 17.8701 17.0019 17.8701 16.5219C17.8701 16.0419 17.4806 15.6523 17.0006 15.6523H6.56582C6.08582 15.6523 5.69629 16.0419 5.69629 16.5219C5.69629 17.0019 6.08582 17.3914 6.56582 17.3914Z" fill="#FF7A00"/>
<path d="M6.56582 27.826H17.0006C17.4806 27.826 17.8701 27.4373 17.8701 26.9564C17.8701 26.4756 17.4806 26.0869 17.0006 26.0869H6.56582C6.08582 26.0869 5.69629 26.4756 5.69629 26.9564C5.69621 27.4373 6.08582 27.826 6.56582 27.826Z" fill="#FF7A00"/>
<path d="M5.69531 21.7392C5.69531 22.22 6.08484 22.6087 6.56484 22.6087H27.4344C27.9152 22.6087 28.3039 22.22 28.3039 21.7392C28.3039 21.2583 27.9152 20.8696 27.4344 20.8696H6.56484C6.08492 20.8696 5.69531 21.2583 5.69531 21.7392Z" fill="#FF7A00"/>
<path d="M27.4354 31.3044H6.56582C6.08582 31.3044 5.69629 31.6931 5.69629 32.174C5.69629 32.6548 6.08582 33.0435 6.56582 33.0435H27.4354C27.9162 33.0435 28.3049 32.6548 28.3049 32.174C28.3049 31.6931 27.9162 31.3044 27.4354 31.3044Z" fill="#FF7A00"/>
</svg>
