<svg width="17" height="17" viewBox="0 0 17 17" fill="none" xmlns="http://www.w3.org/2000/svg">
<path d="M10.2173 15.4218C10.0771 15.4567 9.93417 15.4877 9.79231 15.5139C9.42148 15.5828 9.17631 15.9395 9.2449 16.3107C9.27878 16.4933 9.38249 16.6453 9.52329 16.7446C9.6684 16.8468 9.85308 16.8929 10.0413 16.8579C10.2102 16.8265 10.3805 16.7897 10.5475 16.748C10.9137 16.6568 11.1368 16.2858 11.0455 15.9198C10.9543 15.5535 10.5837 15.3306 10.2173 15.4218Z" fill="#00B2FF"/>
<path d="M15.2706 6.26189C15.3185 6.40616 15.4099 6.52394 15.5253 6.60532C15.6965 6.72587 15.9204 6.76644 16.1342 6.69576C16.4925 6.57678 16.6867 6.19038 16.5681 5.83222C16.5141 5.66895 16.4542 5.50517 16.3903 5.34569C16.2502 4.99525 15.8526 4.82463 15.502 4.96481C15.1518 5.10491 14.9811 5.50254 15.1214 5.85309C15.175 5.98713 15.2252 6.12471 15.2706 6.26189Z" fill="#00B2FF"/>
<path d="M12.4379 14.4464C12.3174 14.5259 12.1929 14.603 12.0676 14.6751C11.7406 14.8638 11.6286 15.2818 11.8171 15.6087C11.8683 15.6976 11.9365 15.7703 12.0151 15.8258C12.2259 15.9741 12.5122 15.9963 12.7506 15.859C12.8996 15.7731 13.0478 15.6816 13.1913 15.5867C13.5061 15.3787 13.5927 14.9547 13.3847 14.6398C13.1766 14.3248 12.7528 14.2382 12.4379 14.4464Z" fill="#00B2FF"/>
<path d="M16.9932 8.17074C16.9783 7.79355 16.6606 7.49996 16.2833 7.51469C15.9065 7.52956 15.6127 7.84738 15.6275 8.22442C15.6332 8.36858 15.6346 8.5149 15.6313 8.65891C15.626 8.89545 15.7417 9.10631 15.9215 9.23304C16.0286 9.30846 16.1586 9.3541 16.2995 9.35732C16.6767 9.36569 16.9893 9.06651 16.9977 8.68913C17.0014 8.51706 17 8.34271 16.9932 8.17074Z" fill="#00B2FF"/>
<path d="M15.1591 12.6484C14.8566 12.4215 14.4287 12.4831 14.2022 12.785C14.1154 12.9006 14.0241 13.0148 13.9305 13.1248C13.6861 13.412 13.7206 13.8434 14.0078 14.0881C14.0242 14.102 14.0407 14.1147 14.0579 14.1267C14.3435 14.328 14.7403 14.2818 14.9712 14.0108C15.0829 13.8797 15.1918 13.7432 15.2955 13.6051C15.522 13.3032 15.4607 12.875 15.1591 12.6484Z" fill="#00B2FF"/>
<path d="M16.1633 10.178C15.8032 10.065 15.4196 10.2655 15.3068 10.6256C15.2636 10.7632 15.2157 10.9015 15.1641 11.0369C15.0506 11.3349 15.1593 11.6628 15.4085 11.8386C15.4543 11.8707 15.5046 11.8979 15.5593 11.9186C15.9119 12.0531 16.3068 11.8762 16.4412 11.5235C16.5025 11.3625 16.5594 11.1981 16.6109 11.0345C16.7237 10.6743 16.5233 10.2909 16.1633 10.178Z" fill="#00B2FF"/>
<path d="M7.23539 15.5202C6.6244 15.4105 6.03829 15.2237 5.48252 14.9631C5.47594 14.9597 5.47006 14.9558 5.46315 14.9526C5.33218 14.891 5.20143 14.825 5.0747 14.756C5.07426 14.7555 5.07346 14.7551 5.07276 14.7548C4.84024 14.6268 4.61331 14.4851 4.39285 14.3299C1.17812 12.0654 0.405171 7.60761 2.66987 4.39291C3.16231 3.69415 3.75825 3.11118 4.42263 2.64914C4.43082 2.64343 4.439 2.63777 4.44712 2.63203C6.78829 1.01889 9.96725 0.91018 12.4532 2.56783L11.9193 3.33928C11.7708 3.554 11.8622 3.71048 12.122 3.68709L14.4413 3.47946C14.7015 3.45607 14.8571 3.231 14.7871 2.97974L14.1643 0.735799C14.0946 0.484239 13.916 0.454128 13.7675 0.668816L13.2323 1.4421C11.4079 0.217441 9.21981 -0.249537 7.04797 0.127071C6.82922 0.164929 6.61355 0.211265 6.40083 0.265202C6.39919 0.265495 6.39787 0.265677 6.39656 0.26597C6.38834 0.26798 6.38 0.270647 6.372 0.272876C4.49919 0.753814 2.86519 1.84611 1.69922 3.40458C1.68939 3.41624 1.67927 3.42764 1.66999 3.44032C1.63121 3.49254 1.59273 3.54596 1.55506 3.59939C1.49345 3.68695 1.43271 3.7767 1.37461 3.86644C1.36734 3.87726 1.36178 3.88826 1.35543 3.89919C0.393258 5.39016 -0.0708335 7.11388 0.00875638 8.86873C0.00893909 8.87451 0.00861021 8.88031 0.00875638 8.88624C0.0164669 9.05766 0.0300607 9.23145 0.0485148 9.40255C0.0495014 9.41358 0.0519498 9.42403 0.0538135 9.43507C0.0728887 9.60711 0.0968242 9.77956 0.126826 9.95197C0.431738 11.7111 1.26155 13.294 2.50498 14.5256C2.50787 14.5285 2.51087 14.5317 2.51379 14.5347C2.51481 14.5358 2.51595 14.5364 2.51693 14.5374C2.85101 14.867 3.21439 15.1717 3.60565 15.4473C4.62957 16.1688 5.76974 16.6457 6.99421 16.8654C7.36574 16.9322 7.72064 16.6849 7.7873 16.3135C7.85392 15.9419 7.60681 15.5867 7.23539 15.5202Z" fill="#00B2FF"/>
<path d="M8.08049 2.97852C7.77488 2.97852 7.52734 3.22627 7.52734 3.53144V9.04014L12.5655 11.6446C12.6466 11.6866 12.7334 11.7063 12.8188 11.7063C13.0189 11.7063 13.2122 11.5974 13.3105 11.4072C13.4506 11.1359 13.3446 10.8025 13.0732 10.6623L8.63301 8.3668V3.53144C8.63298 3.22627 8.38573 2.97852 8.08049 2.97852Z" fill="#00B2FF"/>
</svg>
